<svg height='100px' width='100px'  fill="#000000" xmlns="http://www.w3.org/2000/svg" xmlns:xlink="http://www.w3.org/1999/xlink" version="1.0" x="0px" y="0px" viewBox="0 0 100 100" enable-background="new 0 0 100 100" xml:space="preserve"><path d="M34.8692093,48.2627068c2.1902809-1.2676125,3.664959-3.6342621,3.664959-6.3469162  c0-2.7125893-1.474678-5.0792999-3.664959-6.3468513c-2.1902962,1.2675514-3.6649742,3.6342621-3.6649742,6.3468513  C31.2042351,44.6284447,32.6789131,46.9950943,34.8692093,48.2627068z"></path><path d="M30.4718151,50.1120491c1.0638657-0.6156464,1.9138012-1.557972,2.4168301-2.6885872  c-1.6524982-1.3435974-2.7112961-3.3888092-2.7112961-5.6847153c0-0.5786362,0.0708218-1.1400871,0.1976681-1.6799431  c-1.690773,1.0230484-2.823204,2.8760567-2.823204,4.9964943C27.5518131,47.2165413,28.7267532,49.1021423,30.4718151,50.1120491z"></path><path d="M48.6088104,51.4051819c0.8816719-0.5102272,1.4752922-1.4629135,1.4752922-2.5548706  c0-1.0918961-0.5936203-2.0445824-1.4752922-2.5548096c-0.8816566,0.5102272-1.4752769,1.4629135-1.4752769,2.5548096  C47.1335335,49.9422684,47.7271538,50.8949547,48.6088104,51.4051819z"></path><path d="M49.4060669,51.0673256c0.2024841,0.4551506,0.5446205,0.8344421,0.9728661,1.0822945  c0.7024498-0.406517,1.175396-1.1655426,1.175396-2.0355492c0-0.8535194-0.4558296-1.5994072-1.1364403-2.0112305  c0.0510674,0.2172813,0.079567,0.4432793,0.079567,0.6762238C50.4974556,49.7032623,50.0712662,50.5265236,49.4060669,51.0673256z"></path><path d="M34.9652634,53.01931l0.5413208-4.3306313c-0.5923729,0.4375267-1.184761,0.8340645-1.184761,0.8340645l0.4487572,3.4965668  h-4.1069241l0.2442818-1.903286c0,0-0.4719849-0.3159409-0.9439526-0.6646004l0.3209934,2.5678864H3.5  c44.6943207,25.6764374,92.1666641,0,92.1666641,0H34.9652634z"></path></svg>