<svg height='100px' width='100px'  fill="#000000" xmlns="http://www.w3.org/2000/svg" xmlns:xlink="http://www.w3.org/1999/xlink" version="1.0" x="0px" y="0px" viewBox="0 0 100 100" enable-background="new 0 0 100 100" xml:space="preserve"><path d="M85.8878937,54.1953773l0.2710495-2.1685715c-0.4876404,0.1601143-1.1112289,0.1157227-1.1112289,0.1157227  l0.2340698,1.8234444c-10.1694336-3.6939774-14.7722626-0.1045074-21.7834282,2.1045265l0.2961922-2.3693962  c-0.4876366,0.1601181-1.1112289,0.1157684-1.1112289,0.1157684l0.3090935,2.4083366  c-1.4701233,0.4408722-3.0508499,0.8137665-4.811882,1.043663l0.2837029-2.2696381  c-0.3429184,0.1126137-0.781456,0.0814095-0.781456,0.0814095l0.2841949,2.2141914  c-4.2103195,0.5176125-9.4476776,0.2140083-16.6505775-1.9286041c-1.7780266-0.5288315-3.4730911-0.9692116-5.0926819-1.3338356  l0.8762589-7.0099831c-1.218071,0.3999634-2.7757034,0.2891121-2.7757034,0.2891121l0.8330154,6.4904823  c-4.6862068-0.9768295-8.7040195-1.2923126-12.1331291-1.1590614l0.3892746-3.1142387  c-0.6211357,0.2039719-1.415451,0.1474609-1.415451,0.1474609l0.3848515,2.9987602  C8.4163094,53.4603157,4.5053773,61.7280502,4.5053773,61.7280502c63.9944992,14.0165176,90.9892426-2.6427803,90.9892426-2.6427803  C91.7904053,56.8229218,88.6403732,55.2502594,85.8878937,54.1953773z"></path><path d="M35.7121201,45.8767433c3.624321,0,6.747448-2.1111183,8.2314529-5.1658592l-8.2314529-17.2707729L27.480711,40.7108841  C28.964756,43.765625,32.0877991,45.8767433,35.7121201,45.8767433z"></path><path d="M22.7057247,48.9444618c1.8482571,0,3.4409027-1.0765839,4.1977081-2.6343803l-4.1977081-8.8074188l-4.1977501,8.8074188  C19.264822,47.867878,20.8574677,48.9444618,22.7057247,48.9444618z"></path><path d="M63.2389336,53.2424583c1.4510002,0,2.7012978-0.8451767,3.2954445-2.068161l-3.2954445-6.9143181l-3.2954063,6.9143181  C60.5376358,52.3972816,61.7879372,53.2424583,63.2389336,53.2424583z"></path><path d="M85.6033249,51.568161c1.4509964,0,2.7013397-0.8452187,3.2954483-2.0681648l-3.2954483-6.9143181l-3.2954407,6.9143181  C82.9020691,50.7229424,84.1523743,51.568161,85.6033249,51.568161z"></path><path d="M58.0735245,54.6766663c1.0203629,0,1.8996506-0.5943947,2.3175087-1.4543953l-2.3175087-4.8624153l-2.3175087,4.8624153  C56.1738739,54.0822716,57.0531235,54.6766663,58.0735245,54.6766663z"></path></svg>