<svg height='100px' width='100px'  fill="#000000" xmlns="http://www.w3.org/2000/svg" xmlns:xlink="http://www.w3.org/1999/xlink" version="1.1" x="0px" y="0px" viewBox="0 0 100 100" enable-background="new 0 0 100 100" xml:space="preserve"><g><path d="M39.384,0.953c-4.785-1.018-9.491,2.032-10.512,6.812c-1.016,4.783,2.032,9.488,6.817,10.505   c4.783,1.025,9.492-2.03,10.507-6.813C47.215,6.675,44.163,1.971,39.384,0.953z"></path><path d="M73.775,89.413l-14.453-13.24l0.841-24.025c0.042-1.963-0.205-3.854-0.338-4.289c-0.166-1.356-0.634-3.065-0.938-3.978   l-6.078-18.367c-1.305-3.337-4.427-5.848-8.261-6.168c-2.239-0.201-5.146,1.093-6.608,2.553c-1.537,1.387-3.034,4.423-2.219,7.665   l2.864,10.112l-13.341,5.351c-2.363,0.95-3.511,3.635-2.563,6c0.722,1.803,2.453,2.898,4.284,2.898c0.57,0,1.153-0.108,1.716-0.335   l12.431-4.986l1.303,4.601c0,0-12.201,8.634-13.977,9.873c-2.372,1.66-4.039,3.617-4.143,7.172l0.051,23.829   c0,6.676,10.068,6.828,10.068,0.049l0.064-22.336l13.321-7.572c0,0,0.013,13.59,0.013,14.44c0,1.782,1.641,3.125,2.18,3.503   l16.545,15.001C72.709,102.171,79.029,93.976,73.775,89.413z"></path><circle cx="64.927" cy="15.813" r="6.648"></circle></g><g><path d="M74.71,26.272l-20.786-4.9l7.207,22.104c0.832-1.851,2.68-3.143,4.84-3.143c2.936,0,5.313,2.378,5.313,5.313v2.312   c0.378-0.053,0.76-0.088,1.116-0.212c2.455-0.848,5.756-4.883,5.79-10.732C78.223,31.17,74.71,26.272,74.71,26.272z"></path></g><g><path d="M65.971,60.343c-1.748,0-3.167-1.418-3.167-3.167v-11.53c0-1.749,1.419-3.167,3.167-3.167c1.75,0,3.167,1.418,3.167,3.167   v11.53C69.138,58.925,67.721,60.343,65.971,60.343L65.971,60.343z"></path></g></svg>