<svg height='100px' width='100px'  fill="#000000" xmlns="http://www.w3.org/2000/svg" xmlns:xlink="http://www.w3.org/1999/xlink" version="1.1" x="0px" y="0px" viewBox="0 0 100 100" enable-background="new 0 0 100 100" xml:space="preserve"><path d="M15.417,65.413c-0.538,0.296-1.057,0.412-1.56,0.356c-0.624-0.069-1.097-0.386-1.445-0.948  c-0.349-0.568-0.493-1.1-0.438-1.602c0.064-0.58,0.347-1.012,0.85-1.312l7.807-4.922c0.298-0.241,0.799-0.322,1.492-0.246  c0.461,0.051,0.96,0.162,1.485,0.342l3.076,1.271L15.417,65.413z"></path><path d="M40.467,50.012c0.06-2.028-1.18-3.942-3.202-4.615c-2.469-0.814-5.138,0.522-5.955,2.987  c-0.762,2.304,0.364,4.757,2.523,5.743L40.467,50.012z"></path><circle cx="62.216" cy="20.797" r="5.85"></circle><g><circle cx="9.335" cy="74.314" r="1.943"></circle><circle cx="39.113" cy="74.314" r="1.943"></circle><path d="M97.24,65.928l-11.703-4.755l-2.484-14.315c-0.243-1.273-0.662-2.461-0.808-2.724c-0.294-0.853-0.832-1.891-1.154-2.441   l-6.816-12.727c-1.305-1.974-3.666-3.166-6.186-2.847c-1.476,0.18-3.188,1.376-3.978,2.65c-0.901,1.075-1.235,2.444-1.239,3.421   v11.412h-8.46c-0.236,0-0.645,0.049-0.875,0.117c-0.51,0.12-0.999,0.372-1.584,0.725L14.732,67.511   c-0.005,0.003-0.025,0.017-0.033,0.021c-1.476-1.171-3.338-1.876-5.364-1.876c-4.775,0-8.659,3.885-8.659,8.659   c0,4.773,3.884,8.657,8.659,8.657c4.774,0,8.658-3.884,8.658-8.657c0-1.871-0.602-3.601-1.616-5.019l6.463-4.009l9.127,4.146   c-0.952,1.393-1.513,3.072-1.513,4.882c0,4.773,3.885,8.657,8.66,8.657c4.773,0,8.657-3.884,8.657-8.657   c0-4.774-3.884-8.659-8.657-8.659c-0.331,0-0.656,0.022-0.979,0.06l8.835-15.393l4.456-2.764c0.389,1.022,1.37,1.751,2.529,1.751   h11.629c1.496,0,2.713-1.215,2.713-2.713v-2.68l3.557,6.635l-6.602,9.073l-0.718,1.257c-0.508,0.89-1.092,2.309-0.971,3.948   l2.174,14.61c0.609,4.735,6.983,4.979,6.851-0.04l-2.233-14.979l6.586-7.061l2.398,7.587c0.014,0.037,0.049,0.066,0.062,0.103   c0.16,0.377,0.371,0.721,0.648,1.017c0.042,0.044,0.086,0.081,0.134,0.122c0.302,0.3,0.644,0.55,1.045,0.721l12.719,5.246   C99.454,73.779,100.756,67.459,97.24,65.928z M9.335,79.246c-2.719,0-4.932-2.213-4.932-4.931c0-2.719,2.212-4.933,4.932-4.933   s4.932,2.214,4.932,4.933C14.267,77.033,12.055,79.246,9.335,79.246z M44.045,74.315c0,2.718-2.212,4.931-4.93,4.931   c-2.719,0-4.933-2.213-4.933-4.931c0-2.719,2.213-4.933,4.933-4.933C41.833,69.383,44.045,71.597,44.045,74.315z"></path></g></svg>